<svg width="305" height="77" viewBox="0 0 305 77" fill="none" xmlns="http://www.w3.org/2000/svg">
<path d="M8.24761 64V4.024H15.8076V57.28H42.0156V64H8.24761ZM43.8944 76.16C42.8704 76.16 41.9744 76.0747 41.2064 75.904C40.4384 75.776 39.7557 75.584 39.1584 75.328V70.464C39.8411 70.6347 40.5664 70.784 41.3344 70.912C42.1024 71.04 42.9131 71.104 43.7664 71.104C44.8331 71.104 45.8357 70.8907 46.7744 70.464C47.7557 70.0373 48.5451 69.2907 49.1424 68.224C49.7397 67.1573 50.0384 65.664 50.0384 63.744V18.304H55.7984V63.296C55.7984 66.24 55.3077 68.6507 54.3264 70.528C53.3451 72.448 51.9584 73.856 50.1664 74.752C48.3744 75.6907 46.2837 76.16 43.8944 76.16ZM102.61 47.872C102.61 51.0293 101.97 53.888 100.69 56.448C99.4104 58.9653 97.4477 60.9707 94.8024 62.464C92.1997 63.9147 88.8717 64.64 84.8184 64.64C79.1437 64.64 74.8131 63.104 71.8264 60.032C68.8824 56.9173 67.4104 52.8213 67.4104 47.744V18.304H73.1704V47.936C73.1704 51.648 74.1517 54.528 76.1144 56.576C78.1197 58.624 81.1277 59.648 85.1384 59.648C87.9117 59.648 90.1517 59.1573 91.8584 58.176C93.6077 57.152 94.8877 55.7653 95.6984 54.016C96.5091 52.224 96.9144 50.176 96.9144 47.872V18.304H102.61V47.872ZM151.279 40.704C151.279 45.824 150.319 50.112 148.399 53.568C146.522 57.024 143.812 59.6267 140.271 61.376C136.73 63.1253 132.442 64 127.407 64H114.671V18.304H128.751C133.359 18.304 137.348 19.1573 140.719 20.864C144.09 22.5707 146.692 25.088 148.527 28.416C150.362 31.7013 151.279 35.7973 151.279 40.704ZM145.199 40.896C145.199 36.8427 144.516 33.5147 143.151 30.912C141.828 28.3093 139.866 26.3893 137.263 25.152C134.703 23.872 131.588 23.232 127.919 23.232H120.431V59.072H126.639C132.826 59.072 137.455 57.5573 140.527 54.528C143.642 51.456 145.199 46.912 145.199 40.896ZM174.285 64H157.773V60.672L163.149 59.456V22.912L157.773 21.632V18.304H174.285V21.632L168.909 22.912V59.456L174.285 60.672V64ZM222.98 41.088C222.98 44.6293 222.532 47.8507 221.636 50.752C220.74 53.6107 219.396 56.0853 217.604 58.176C215.855 60.2667 213.658 61.8667 211.012 62.976C208.41 64.0853 205.38 64.64 201.924 64.64C198.34 64.64 195.226 64.0853 192.58 62.976C189.935 61.824 187.738 60.224 185.988 58.176C184.239 56.0853 182.938 53.5893 182.084 50.688C181.231 47.7867 180.804 44.5653 180.804 41.024C180.804 36.3307 181.572 32.2347 183.108 28.736C184.644 25.2373 186.97 22.5067 190.084 20.544C193.242 18.5813 197.21 17.6 201.988 17.6C206.554 17.6 210.394 18.5813 213.508 20.544C216.623 22.464 218.97 25.1947 220.548 28.736C222.17 32.2347 222.98 36.352 222.98 41.088ZM186.884 41.088C186.884 44.928 187.418 48.2347 188.484 51.008C189.551 53.7813 191.194 55.9147 193.412 57.408C195.674 58.9013 198.511 59.648 201.924 59.648C205.38 59.648 208.196 58.9013 210.372 57.408C212.591 55.9147 214.234 53.7813 215.3 51.008C216.367 48.2347 216.9 44.928 216.9 41.088C216.9 35.328 215.706 30.8267 213.316 27.584C210.927 24.2987 207.151 22.656 201.988 22.656C198.532 22.656 195.674 23.4027 193.412 24.896C191.194 26.3467 189.551 28.4587 188.484 31.232C187.418 33.9627 186.884 37.248 186.884 41.088Z" fill="#A12424"/>
<path d="M280.295 44.1838C281.353 39.9876 278.232 35.582 273.323 34.3435C268.414 33.1051 263.576 35.5028 262.517 39.699C261.459 43.8952 264.58 48.3008 269.489 49.5393C274.398 50.7777 279.236 48.38 280.295 44.1838Z" stroke="#A12424" stroke-width="3" stroke-linecap="round" stroke-linejoin="round"/>
<path d="M280.294 44.1844L288.831 10.25C287.416 15.8563 298.817 13.1094 297.467 18.4609" stroke="#A12424" stroke-width="3" stroke-linecap="round" stroke-linejoin="round"/>
<path d="M279.825 26.8408C276.356 24.7747 272.27 23.9979 268.285 24.6471C264.3 25.2963 260.672 27.3299 258.038 30.3901C255.404 33.4504 253.934 37.3413 253.886 41.3784C253.838 45.4156 255.215 49.3405 257.775 52.4627C260.334 55.5849 263.913 57.7045 267.882 58.4487C271.85 59.1928 275.953 58.5138 279.471 56.5311C282.988 54.5484 285.693 51.3891 287.111 47.6087C288.529 43.8283 288.568 39.6691 287.222 35.8626" stroke="#A12424" stroke-width="3" stroke-linecap="round" stroke-linejoin="round"/>
<path d="M281.886 18.6491C276.196 15.9491 269.706 15.4581 263.674 17.2712C257.643 19.0844 252.499 23.0725 249.241 28.4624C245.982 33.8523 244.841 40.26 246.039 46.4434C247.236 52.6267 250.687 58.1452 255.722 61.9289C260.757 65.7127 267.018 67.4921 273.29 66.9224C279.563 66.3526 285.4 63.4742 289.671 58.8451C293.942 54.216 296.341 48.1661 296.405 41.8682C296.469 35.5703 294.192 29.473 290.016 24.7584" stroke="#A12424" stroke-width="3" stroke-linecap="round" stroke-linejoin="round"/>
<path d="M271.016 8.00781C262.106 8.00781 253.561 11.5471 247.261 17.8472C240.961 24.1472 237.422 32.6919 237.422 41.6016" stroke="#A12424" stroke-width="3" stroke-linecap="round" stroke-linejoin="round"/>
</svg>
