<svg width="300" height="73" viewBox="0 0 300 73" fill="none" xmlns="http://www.w3.org/2000/svg">
<path d="M8.24761 59.9922V0.0161836H15.8076V53.2722H42.0156V59.9922H8.24761ZM43.8944 72.1522C42.8704 72.1522 41.9744 72.0669 41.2064 71.8962C40.4384 71.7682 39.7557 71.5762 39.1584 71.3202V66.4562C39.8411 66.6269 40.5664 66.7762 41.3344 66.9042C42.1024 67.0322 42.9131 67.0962 43.7664 67.0962C44.8331 67.0962 45.8357 66.8829 46.7744 66.4562C47.7557 66.0295 48.5451 65.2829 49.1424 64.2162C49.7397 63.1495 50.0384 61.6562 50.0384 59.7362V14.2962H55.7984V59.2882C55.7984 62.2322 55.3077 64.6429 54.3264 66.5202C53.3451 68.4402 51.9584 69.8482 50.1664 70.7442C48.3744 71.6829 46.2837 72.1522 43.8944 72.1522ZM102.61 43.8642C102.61 47.0215 101.97 49.8802 100.69 52.4402C99.4104 54.9575 97.4477 56.9629 94.8024 58.4562C92.1997 59.9069 88.8717 60.6322 84.8184 60.6322C79.1437 60.6322 74.8131 59.0962 71.8264 56.0242C68.8824 52.9095 67.4104 48.8135 67.4104 43.7362V14.2962H73.1704V43.9282C73.1704 47.6402 74.1517 50.5202 76.1144 52.5682C78.1197 54.6162 81.1277 55.6402 85.1384 55.6402C87.9117 55.6402 90.1517 55.1495 91.8584 54.1682C93.6077 53.1442 94.8877 51.7575 95.6984 50.0082C96.5091 48.2162 96.9144 46.1682 96.9144 43.8642V14.2962H102.61V43.8642ZM151.279 36.6962C151.279 41.8162 150.319 46.1042 148.399 49.5602C146.522 53.0162 143.812 55.6189 140.271 57.3682C136.73 59.1175 132.442 59.9922 127.407 59.9922H114.671V14.2962H128.751C133.359 14.2962 137.348 15.1495 140.719 16.8562C144.09 18.5629 146.692 21.0802 148.527 24.4082C150.362 27.6935 151.279 31.7895 151.279 36.6962ZM145.199 36.8882C145.199 32.8349 144.516 29.5069 143.151 26.9042C141.828 24.3015 139.866 22.3815 137.263 21.1442C134.703 19.8642 131.588 19.2242 127.919 19.2242H120.431V55.0642H126.639C132.826 55.0642 137.455 53.5495 140.527 50.5202C143.642 47.4482 145.199 42.9042 145.199 36.8882ZM174.285 59.9922H157.773V56.6642L163.149 55.4482V18.9042L157.773 17.6242V14.2962H174.285V17.6242L168.909 18.9042V55.4482L174.285 56.6642V59.9922ZM222.98 37.0802C222.98 40.6215 222.532 43.8429 221.636 46.7442C220.74 49.6029 219.396 52.0775 217.604 54.1682C215.855 56.2589 213.658 57.8589 211.012 58.9682C208.41 60.0775 205.38 60.6322 201.924 60.6322C198.34 60.6322 195.226 60.0775 192.58 58.9682C189.935 57.8162 187.738 56.2162 185.988 54.1682C184.239 52.0775 182.938 49.5815 182.084 46.6802C181.231 43.7789 180.804 40.5575 180.804 37.0162C180.804 32.3229 181.572 28.2269 183.108 24.7282C184.644 21.2295 186.97 18.4989 190.084 16.5362C193.242 14.5735 197.21 13.5922 201.988 13.5922C206.554 13.5922 210.394 14.5735 213.508 16.5362C216.623 18.4562 218.97 21.1869 220.548 24.7282C222.17 28.2269 222.98 32.3442 222.98 37.0802ZM186.884 37.0802C186.884 40.9202 187.418 44.2269 188.484 47.0002C189.551 49.7735 191.194 51.9069 193.412 53.4002C195.674 54.8935 198.511 55.6402 201.924 55.6402C205.38 55.6402 208.196 54.8935 210.372 53.4002C212.591 51.9069 214.234 49.7735 215.3 47.0002C216.367 44.2269 216.9 40.9202 216.9 37.0802C216.9 31.3202 215.706 26.8189 213.316 23.5762C210.927 20.2909 207.151 18.6482 201.988 18.6482C198.532 18.6482 195.674 19.3949 193.412 20.8882C191.194 22.3389 189.551 24.4509 188.484 27.2242C187.418 29.9549 186.884 33.2402 186.884 37.0802Z" fill="black"/>
<path d="M280.295 40.176C281.353 35.9798 278.232 31.5742 273.323 30.3357C268.414 29.0973 263.576 31.495 262.517 35.6912C261.459 39.8874 264.58 44.293 269.489 45.5315C274.398 46.7699 279.236 44.3722 280.295 40.176Z" stroke="black" stroke-width="3" stroke-linecap="round" stroke-linejoin="round"/>
<path d="M280.294 40.1766L288.831 6.24219C287.416 11.8484 298.817 9.10156 297.467 14.4531" stroke="black" stroke-width="3" stroke-linecap="round" stroke-linejoin="round"/>
<path d="M279.825 22.8329C276.356 20.7669 272.27 19.9901 268.285 20.6393C264.3 21.2885 260.672 23.3221 258.038 26.3823C255.404 29.4425 253.934 33.3334 253.886 37.3706C253.838 41.4078 255.215 45.3327 257.775 48.4549C260.334 51.5771 263.913 53.6967 267.882 54.4408C271.85 55.185 275.953 54.506 279.471 52.5233C282.988 50.5406 285.693 47.3813 287.111 43.6009C288.529 39.8205 288.568 35.6613 287.222 31.8548" stroke="black" stroke-width="3" stroke-linecap="round" stroke-linejoin="round"/>
<path d="M281.886 14.6413C276.196 11.9413 269.706 11.4503 263.674 13.2634C257.643 15.0766 252.499 19.0646 249.241 24.4545C245.982 29.8444 244.841 36.2522 246.039 42.4355C247.236 48.6189 250.687 54.1374 255.722 57.9211C260.757 61.7049 267.018 63.4843 273.29 62.9146C279.563 62.3448 285.4 59.4664 289.671 54.8373C293.942 50.2082 296.341 44.1583 296.405 37.8604C296.469 31.5625 294.192 25.4652 290.016 20.7506" stroke="black" stroke-width="3" stroke-linecap="round" stroke-linejoin="round"/>
<path d="M271.016 4C262.106 4 253.561 7.53933 247.261 13.8394C240.961 20.1394 237.422 28.6841 237.422 37.5938" stroke="black" stroke-width="3" stroke-linecap="round" stroke-linejoin="round"/>
</svg>
